<mxfile host="65bd71144e">
    <diagram id="p07p9-Dt14PnsUnyqcVm" name="Página-1">
        <mxGraphModel dx="926" dy="555" grid="1" gridSize="10" guides="1" tooltips="1" connect="1" arrows="1" fold="1" page="1" pageScale="1" pageWidth="827" pageHeight="1169" math="0" shadow="0">
            <root>
                <mxCell id="0"/>
                <mxCell id="1" parent="0"/>
                <mxCell id="6" value="Jean Espinoza" style="shape=umlActor;verticalLabelPosition=bottom;verticalAlign=top;html=1;outlineConnect=0;" vertex="1" parent="1">
                    <mxGeometry x="280" y="80" width="30" height="60" as="geometry"/>
                </mxCell>
                <mxCell id="7" value="Isabel Vargas" style="shape=umlActor;verticalLabelPosition=bottom;verticalAlign=top;html=1;outlineConnect=0;" vertex="1" parent="1">
                    <mxGeometry x="280" y="210" width="30" height="60" as="geometry"/>
                </mxCell>
                <mxCell id="8" value="Jesus Ruiz" style="shape=umlActor;verticalLabelPosition=bottom;verticalAlign=top;html=1;outlineConnect=0;" vertex="1" parent="1">
                    <mxGeometry x="280" y="330" width="30" height="60" as="geometry"/>
                </mxCell>
                <mxCell id="9" value="" style="group" vertex="1" connectable="0" parent="1">
                    <mxGeometry x="480" y="170" width="156" height="140" as="geometry"/>
                </mxCell>
                <mxCell id="2" value="" style="rounded=1;whiteSpace=wrap;html=1;" vertex="1" parent="9">
                    <mxGeometry width="156" height="140" as="geometry"/>
                </mxCell>
                <mxCell id="3" value="Persona" style="text;html=1;strokeColor=none;fillColor=none;align=center;verticalAlign=middle;whiteSpace=wrap;rounded=0;" vertex="1" parent="9">
                    <mxGeometry x="48" y="2" width="60" height="20" as="geometry"/>
                </mxCell>
                <mxCell id="5" value="1. DNI&lt;br&gt;2. Nombre&lt;br&gt;3. Apellidos&lt;br&gt;4. Edad (Fecha de nac)&lt;br&gt;5. Genero&lt;br&gt;6. Estado Civil&lt;br&gt;7. Domicilio" style="text;html=1;strokeColor=none;fillColor=none;align=left;verticalAlign=middle;whiteSpace=wrap;rounded=0;" vertex="1" parent="9">
                    <mxGeometry x="10" y="28" width="130" height="100" as="geometry"/>
                </mxCell>
                <mxCell id="10" style="edgeStyle=none;html=1;exitX=0;exitY=0.5;exitDx=0;exitDy=0;" edge="1" parent="1" source="2" target="6">
                    <mxGeometry relative="1" as="geometry"/>
                </mxCell>
                <mxCell id="11" style="edgeStyle=none;html=1;exitX=0;exitY=0.5;exitDx=0;exitDy=0;" edge="1" parent="1" source="2" target="7">
                    <mxGeometry relative="1" as="geometry"/>
                </mxCell>
                <mxCell id="12" style="edgeStyle=none;html=1;exitX=0;exitY=0.5;exitDx=0;exitDy=0;" edge="1" parent="1" source="2" target="8">
                    <mxGeometry relative="1" as="geometry"/>
                </mxCell>
                <mxCell id="14" value="" style="group" vertex="1" connectable="0" parent="1">
                    <mxGeometry x="480" y="589" width="156" height="140" as="geometry"/>
                </mxCell>
                <mxCell id="15" value="" style="rounded=1;whiteSpace=wrap;html=1;" vertex="1" parent="14">
                    <mxGeometry width="156" height="140" as="geometry"/>
                </mxCell>
                <mxCell id="16" value="Animales Domesticos" style="text;html=1;strokeColor=none;fillColor=none;align=center;verticalAlign=middle;whiteSpace=wrap;rounded=0;" vertex="1" parent="14">
                    <mxGeometry x="10" y="2" width="140" height="20" as="geometry"/>
                </mxCell>
                <mxCell id="17" value="1. Nº Patas&lt;br&gt;2. Onomatopeya&lt;br&gt;3. Color Pelaje&lt;br&gt;4. Raza&lt;br&gt;5. Tipo Cola" style="text;html=1;strokeColor=none;fillColor=none;align=left;verticalAlign=middle;whiteSpace=wrap;rounded=0;" vertex="1" parent="14">
                    <mxGeometry x="10" y="28" width="130" height="100" as="geometry"/>
                </mxCell>
                <mxCell id="18" value="Perro" style="rounded=1;whiteSpace=wrap;html=1;" vertex="1" parent="1">
                    <mxGeometry x="250" y="560" width="90" height="38" as="geometry"/>
                </mxCell>
                <mxCell id="19" value="Gato" style="rounded=1;whiteSpace=wrap;html=1;" vertex="1" parent="1">
                    <mxGeometry x="250" y="640" width="90" height="38" as="geometry"/>
                </mxCell>
                <mxCell id="20" value="Loro" style="rounded=1;whiteSpace=wrap;html=1;" vertex="1" parent="1">
                    <mxGeometry x="250" y="720" width="90" height="38" as="geometry"/>
                </mxCell>
                <mxCell id="22" style="edgeStyle=none;html=1;exitX=0;exitY=0.5;exitDx=0;exitDy=0;entryX=1;entryY=0.5;entryDx=0;entryDy=0;" edge="1" parent="1" source="15" target="18">
                    <mxGeometry relative="1" as="geometry"/>
                </mxCell>
                <mxCell id="23" style="edgeStyle=none;html=1;exitX=0;exitY=0.5;exitDx=0;exitDy=0;entryX=1;entryY=0.5;entryDx=0;entryDy=0;" edge="1" parent="1" source="15" target="19">
                    <mxGeometry relative="1" as="geometry"/>
                </mxCell>
                <mxCell id="28" style="edgeStyle=none;html=1;exitX=0;exitY=0.5;exitDx=0;exitDy=0;entryX=1;entryY=0.5;entryDx=0;entryDy=0;" edge="1" parent="1" source="15" target="20">
                    <mxGeometry relative="1" as="geometry"/>
                </mxCell>
            </root>
        </mxGraphModel>
    </diagram>
</mxfile>